<svg xmlns="http://www.w3.org/2000/svg" version="1.1" xmlns:xlink="http://www.w3.org/1999/xlink" xmlns:svgjs="http://svgjs.dev/svgjs" width="1000" height="1125" viewBox="0 0 1000 1125"><g transform="matrix(1,0,0,1,1.7053025658242404e-13,0)"><svg viewBox="0 0 320 360" data-background-color="#ffffff" preserveAspectRatio="xMidYMid meet" height="1125" width="1000" xmlns="http://www.w3.org/2000/svg" xmlns:xlink="http://www.w3.org/1999/xlink"><g id="tight-bounds" transform="matrix(1,0,0,1,0,0)"><svg viewBox="0 0 320 360" height="360" width="320"><g><svg></svg></g><g><svg viewBox="0 0 320 360" height="360" width="320"><g><path xmlns="http://www.w3.org/2000/svg" d="M20.961 227.22l3.726 4.658-1.863-6.056c-0.466-2.795-3.726 0.466-1.863 1.398M25.153 224.425c1.397 2.329 2.795 4.658 2.795 6.987 0 3.261 2.795 4.658 5.123 5.589-3.261-3.726-5.124-13.974-7.918-12.576M204.017 26.929c7.918 0 15.371-0.932 23.756 0.931 20.495 5.124 37.729 15.371 49.374 29.811l32.606 52.169c1.397 13.042 4.192 27.482 3.726 43.319 3.261 0 2.795-4.658 6.521-5.59-3.726 9.316-5.59 20.961-6.521 34.469-2.329-7.453 0-18.632 0.466-24.687-3.261 5.124-5.124 1.397-5.124-0.932 0.466-3.726-1.397-3.261-2.795-4.658-5.124-4.658-8.384-9.782-12.11-17.7 2.329-6.055 2.795-14.905-4.658-19.563-2.329-1.397-5.124-3.726-6.521-7.453-1.863-5.124-5.124-11.179-4.193-19.097 0.466-2.329-6.987 5.124-11.179 1.863-18.166-12.576-36.332-27.016-58.224-39.127-11.645 0-20.029-4.192-24.221-9.316-3.726-4.658-0.932-10.713 4.658-11.179 3.261 0 6.987-0.932 9.782 0.932 0.466-1.863 2.329-4.192 4.657-4.192M157.904 16.215l0.932 0.466c4.658 0.932 6.987 7.453 12.11 5.124 0 3.261 0.466 6.521-0.466 8.85-1.397 3.726-5.59 3.726-8.85 3.726-31.208-1.863-49.374 11.179-68.471 22.358-5.124 3.261-10.713 5.59-14.906 9.782-20.029 18.632-41.921 35.866-47.045 70.335l-4.192 38.195c-0.466 4.192-5.124 8.384-4.192 13.508l3.26 22.824c-3.261-3.261-5.124 0.932-4.192 2.795 0.466 1.397 2.329 6.055 5.124 1.863 3.726 6.987 7.453 20.495 12.576 26.55 15.837 18.632 36.332 35.4 53.101 52.169 4.192-0.932 7.453-0.932 8.384-3.727 1.397 2.795-1.397 5.59-3.726 6.056 7.453 4.658 15.837 8.85 27.016 9.781 14.44 0.932 27.948 3.261 40.524 6.522 6.521-1.863 13.042-2.795 20.029-3.261 2.329 0 3.726-3.726 6.521-4.658l0.466-4.658c2.795 4.192 2.329-1.397 0.466-4.192 3.261 2.795 4.192 5.124 5.589 6.987 0-1.397 3.726-6.521 3.727-0.466l0.931-6.055c1.397-0.932 1.863 5.124 3.261 0.931 1.397-4.192 4.192-0.932 6.987-2.329-0.932 1.863-0.466 5.59 2.794 3.261l3.727-3.261c2.329 5.59 6.055 3.261 7.918 2.329 20.495-13.042 40.99-28.413 60.553-43.784l-0.466 6.055 2.329-7.453c2.329 2.329 4.192 0.466 5.124-0.931 2.795-4.658 6.521-9.316 12.577-13.508-7.453 20.029-16.303 35.866-27.482 48.908l-4.658 5.59c0 3.261-0.932 7.453-4.658 7.918-1.863 0.466-5.59-0.932-8.384 1.863-1.397 1.863 3.261 5.59-0.466 2.795-3.261-2.329-6.521 0-10.248 0.932-2.795 0.932 1.863 3.726 2.795 5.589 0.932 1.863 1.863 3.726 1.398 6.056l-5.124-5.59c-6.055 3.261-9.782 9.316-14.906 13.974-2.329 1.863-1.397 5.124-1.397 7.918-3.261 0-6.987-0.932-8.85 0.932-1.397 1.863-0.932 4.658-0.932 7.453-4.658-0.466-5.124-7.453-9.315-6.056-4.192 0.932-8.85 1.397-12.577 3.727 2.795 5.59-4.658 2.329-3.726 3.26-6.987-4.192-13.042-7.453-20.495-4.658-15.837-5.124-35.4-2.795-49.84-0.931 0-2.329 0.466-4.658-0.466-5.124-0.932 2.329-3.726 1.397-3.26 1.397-8.85-6.055-17.7-9.782-27.016-14.905-8.384 0.932-16.303-3.261-18.632-5.59-6.521-6.055-13.974-2.795-20.029-4.192-13.042-3.261-17.7-16.769-19.098-26.084-0.932-4.658-4.658-6.521-6.055-6.056-6.055-19.563-15.371-37.263-22.824-55.429-1.863-4.658-1.397-9.316-1.397-14.44 2.329 0.932 4.658 0.466 4.192-2.794-2.329-15.371-7.918-27.016-13.974-38.195 3.261-15.837 3.726-34.469 11.179-48.443 6.521-12.576 18.632-19.098 27.016-29.811 2.795-3.726 2.795-8.85 5.59-12.11 9.316-9.316 18.632-19.098 28.879-27.482 4.658-3.726 10.247 0 17.234-1.397 2.329-8.384 11.645-15.837 20.495-13.508 3.726 0.932 11.179-8.85 13.508-9.782 3.726-1.397 1.863 3.726 1.863 6.987 8.85-6.987 20.961-10.713 32.14-14.906" fill="#cb2020" fill-rule="nonzero" stroke="none" stroke-width="1" stroke-linecap="butt" stroke-linejoin="miter" stroke-miterlimit="10" stroke-dasharray="" stroke-dashoffset="0" font-family="none" font-weight="none" font-size="none" text-anchor="none" style="mix-blend-mode: normal" data-fill-palette-color="tertiary"></path></g><g transform="matrix(1,0,0,1,64.00000000000001,128.77483129205297)"><svg viewBox="0 0 191.99999999999997 102.45033741589405" height="102.45033741589405" width="191.99999999999997"><g><svg viewBox="0 0 337.3341745054945 180" height="102.45033741589405" width="191.99999999999997"><g transform="matrix(1,0,0,1,155.1088997802198,0)"><svg viewBox="0 0 182.22527472527472 180" height="180" width="182.22527472527472"><g id="textblocktransform"><svg viewBox="0 0 182.22527472527472 180" height="180" width="182.22527472527472" id="textblock"><g><svg viewBox="0 0 182.22527472527472 180" height="180" width="182.22527472527472"><g transform="matrix(1,0,0,1,0,0)"><svg width="182.22527472527472" viewBox="1.6400001049041748 -35.54999923706055 35.97999954223633 35.54999923706055" height="180" data-palette-color="#cb2020"><g class="wordmark-text-0" data-fill-palette-color="primary" id="text-0"><path d="M15.55 0L1.64 0 1.64-3.76 5.52-4.49 5.52-31.03 1.64-31.76 1.64-35.55 5.52-35.55 11.74-35.55 28.05-9.59 28.2-9.64 28.2-31.03 23.71-31.76 23.71-35.55 33.74-35.55 37.62-35.55 37.62-31.76 33.74-31.03 33.74 0 27.91 0 11.21-25.85 11.06-25.83 11.06-4.49 15.55-3.76 15.55 0Z" fill="#cb2020" data-fill-palette-color="primary"></path></g></svg></g></svg></g></svg></g></svg></g><g transform="matrix(1,0,0,1,0,33.93249056538139)"><svg viewBox="0 0 112.61521978021977 112.13501886923721" height="112.13501886923721" width="112.61521978021977"><g><svg version="1.1" xmlns="http://www.w3.org/2000/svg" xmlns:xlink="http://www.w3.org/1999/xlink" x="0" y="0" viewBox="0.18443012237548828 0.5609999895095825 100.42723083496094 99.9990005493164" enable-background="new 0.184 0.561 100.426 100" xml:space="preserve" width="112.61521978021977" height="112.13501886923721" class="icon-icon-0" data-fill-palette-color="accent" id="icon-0"><g fill="#ca3433" data-fill-palette-color="accent"><path d="M92.742 54.084L76.597 37.715c-5.172-5.244-12.072-8.132-19.438-8.132-5.563 0-10.875 1.672-15.374 4.756-1.022-2.328-2.681-4.996-5.482-7.141-4.466-3.416-10.389-4.548-17.593-3.334-3.848 0.644-8.75 0.405-10.371-4.349C6.83 15.106 8.926 9.403 12.822 7.312L9.195 0.561C2.012 4.419-1.631 14.033 1.083 21.994c2.544 7.448 9.595 10.974 18.886 9.431 5-0.832 8.906-0.226 11.616 1.816 3.04 2.287 3.878 5.864 4.061 6.878-3.698 4.723-5.744 10.482-5.79 16.583-0.052 7.289 2.743 14.169 7.867 19.363l16.145 16.37c5.171 5.24 12.072 8.125 19.437 8.125 7.224 0 14.033-2.792 19.176-7.862 5.191-5.122 8.076-11.956 8.13-19.251C100.661 66.153 97.869 59.274 92.742 54.084zM69.292 41.557l-12.45 12.28L44.862 41.692c3.488-2.829 7.755-4.446 12.297-4.446C61.643 37.247 65.838 38.81 69.292 41.557zM37.518 56.752c0.034-4.596 1.71-8.885 4.619-12.37l11.975 12.143L41.659 68.81C38.993 65.356 37.49 61.183 37.518 56.752zM87.098 87.242c-3.702 3.649-8.599 5.654-13.794 5.654-5.294 0-10.262-2.073-13.981-5.845L44.857 72.384l27.967-27.585 14.461 14.667c3.687 3.734 5.696 8.683 5.66 13.93C92.906 78.639 90.832 83.556 87.098 87.242z" fill="#ca3433" data-fill-palette-color="accent"></path></g></svg></g></svg></g></svg></g></svg></g></svg></g><defs></defs></svg><rect width="320" height="360" fill="none" stroke="none" visibility="hidden"></rect></g></svg></g></svg>